<svg xmlns="http://www.w3.org/2000/svg" version="1.1" xmlns:xlink="http://www.w3.org/1999/xlink" xmlns:svgjs="http://svgjs.dev/svgjs" width="1000" height="623" viewBox="0 0 1000 623"><g transform="matrix(1,0,0,1,-0.6060606060606233,0.2522267206477409)"><svg viewBox="0 0 396 247" data-background-color="#ffffff" preserveAspectRatio="xMidYMid meet" height="623" width="1000" xmlns="http://www.w3.org/2000/svg" xmlns:xlink="http://www.w3.org/1999/xlink"><g id="tight-bounds" transform="matrix(1,0,0,1,0.2400000000000091,-0.09999999999999432)"><svg viewBox="0 0 395.52 247.2" height="247.2" width="395.52"><g><svg></svg></g><g><svg viewBox="0 0 395.52 247.2" height="247.2" width="395.52"><mask id="fd3229de-630f-4c90-b9f5-352da73ca25e"><rect width="640" height="400" fill="white"></rect><g transform="matrix(1,0,0,1,39.55199999999999,44.92744506127583)"><svg viewBox="0 0 316.416 157.34510987744832" height="157.34510987744832" width="316.416"><g><svg viewBox="0 0 316.416 157.34510987744832" height="157.34510987744832" width="316.416"><g><svg viewBox="0 0 316.416 157.34510987744832" height="157.34510987744832" width="316.416"><g><svg viewBox="0 0 316.416 157.34510987744832" height="157.34510987744832" width="316.416"><g id="SvgjsG1038"><svg viewBox="0 0 316.416 157.34510987744832" height="157.34510987744832" width="316.416" id="SvgjsSvg1037"><g><svg viewBox="0 0 316.416 157.34510987744832" height="157.34510987744832" width="316.416"><g transform="matrix(1,0,0,1,0,0)"><svg width="316.416" viewBox="-0.31000000000000005 -39.51044921875 87.46000000000001 44.00044921875" height="157.34510987744832" data-palette-color="#31c48d"><path d="M44.43-32.3L44.43 0 38.04 0 38.04-20.85 26.78-1.05Q26.37-0.29 25.62 0.1 24.88 0.49 24.02 0.49L24.02 0.49Q23.19 0.49 22.47 0.1 21.75-0.29 21.34-1.05L21.34-1.05 10.03-20.85 10.03 0 3.69 0 3.69-32.3Q3.69-33.4 4.33-34.25 4.98-35.11 6.03-35.4L6.03-35.4Q6.54-35.52 7.06-35.49 7.57-35.45 8.04-35.27 8.52-35.08 8.91-34.75 9.3-34.42 9.57-33.96L9.57-33.96 24.02-8.84 38.48-33.96Q39.04-34.89 40.03-35.28 41.02-35.67 42.09-35.4L42.09-35.4Q43.12-35.11 43.77-34.25 44.43-33.4 44.43-32.3L44.43-32.3ZM83.15-6.35L83.15 0 60.25 0Q59.37 0 58.36-0.21 57.35-0.42 56.36-0.85 55.37-1.29 54.47-1.99 53.56-2.69 52.87-3.67 52.17-4.66 51.76-5.97 51.34-7.28 51.34-8.91L51.34-8.91 51.34-26.1Q51.34-26.98 51.55-27.99 51.76-29 52.19-29.99 52.63-30.98 53.34-31.88 54.05-32.79 55.04-33.48 56.03-34.18 57.32-34.59 58.62-35.01 60.25-35.01L60.25-35.01 83.15-35.01 83.15-28.66 60.25-28.66Q59.01-28.66 58.35-28 57.69-27.34 57.69-26.05L57.69-26.05 57.69-8.91Q57.69-7.69 58.36-7.02 59.03-6.35 60.25-6.35L60.25-6.35 83.15-6.35Z" opacity="1" transform="matrix(1,0,0,1,0,0)" fill="black" class="wordmark-text-0" id="SvgjsPath1036" stroke-width="7" stroke="black" stroke-linejoin="round"></path></svg></g></svg></g></svg></g></svg></g></svg></g></svg></g></svg></g></mask><g transform="matrix(1,0,0,1,39.55199999999999,44.92744506127583)"><svg viewBox="0 0 316.416 157.34510987744832" height="157.34510987744832" width="316.416"><g><svg viewBox="0 0 316.416 157.34510987744832" height="157.34510987744832" width="316.416"><g><svg viewBox="0 0 316.416 157.34510987744832" height="157.34510987744832" width="316.416"><g><svg viewBox="0 0 316.416 157.34510987744832" height="157.34510987744832" width="316.416"><g id="textblocktransform"><svg viewBox="0 0 316.416 157.34510987744832" height="157.34510987744832" width="316.416" id="textblock"><g><svg viewBox="0 0 316.416 157.34510987744832" height="157.34510987744832" width="316.416"><g transform="matrix(1,0,0,1,0,0)"><svg width="316.416" viewBox="-0.31000000000000005 -39.51044921875 87.46000000000001 44.00044921875" height="157.34510987744832" data-palette-color="#31c48d"><path d="M44.43-32.3L44.43 0 38.04 0 38.04-20.85 26.78-1.05Q26.37-0.29 25.62 0.1 24.88 0.49 24.02 0.49L24.02 0.49Q23.19 0.49 22.47 0.1 21.75-0.29 21.34-1.05L21.34-1.05 10.03-20.85 10.03 0 3.69 0 3.69-32.3Q3.69-33.4 4.33-34.25 4.98-35.11 6.03-35.4L6.03-35.4Q6.54-35.52 7.06-35.49 7.57-35.45 8.04-35.27 8.52-35.08 8.91-34.75 9.3-34.42 9.57-33.96L9.57-33.96 24.02-8.84 38.48-33.96Q39.04-34.89 40.03-35.28 41.02-35.67 42.09-35.4L42.09-35.4Q43.12-35.11 43.77-34.25 44.43-33.4 44.43-32.3L44.43-32.3ZM83.15-6.35L83.15 0 60.25 0Q59.37 0 58.36-0.21 57.35-0.42 56.36-0.85 55.37-1.29 54.47-1.99 53.56-2.69 52.87-3.67 52.17-4.66 51.76-5.97 51.34-7.28 51.34-8.91L51.34-8.91 51.34-26.1Q51.34-26.98 51.55-27.99 51.76-29 52.19-29.99 52.63-30.98 53.34-31.88 54.05-32.79 55.04-33.48 56.03-34.18 57.32-34.59 58.62-35.01 60.25-35.01L60.25-35.01 83.15-35.01 83.15-28.66 60.25-28.66Q59.01-28.66 58.35-28 57.69-27.34 57.69-26.05L57.69-26.05 57.69-8.91Q57.69-7.69 58.36-7.02 59.03-6.35 60.25-6.35L60.25-6.35 83.15-6.35Z" opacity="1" transform="matrix(1,0,0,1,0,0)" fill="#31c48d" class="wordmark-text-0" data-fill-palette-color="primary" id="text-0"></path></svg></g></svg></g></svg></g></svg></g></svg></g></svg></g></svg></g><g mask="url(#fd3229de-630f-4c90-b9f5-352da73ca25e)"><g transform="matrix(7.3819845857418125, 0, 0, 7.3819845857418125, 21.976492052023076, 1)"><svg xmlns="http://www.w3.org/2000/svg" xmlns:xlink="http://www.w3.org/1999/xlink" version="1.1" x="0" y="0" viewBox="1.012 8.212 47.625 33.215999999999994" enable-background="new 0 0 50 50" xml:space="preserve" height="33.215999999999994" width="47.625" class="icon-none" data-fill-palette-color="accent" id="none"><g fill="#096a2e" data-fill-palette-color="accent"><polygon fill="#096a2e" points="19.937,10.508 17.653,8.212 1.012,24.792 17.647,41.428 19.94,39.135 5.603,24.794  " data-fill-palette-color="accent"></polygon><polygon fill="#096a2e" points="29.714,10.508 44.046,24.794 29.711,39.135 32.004,41.428 48.637,24.792 32.001,8.212  " data-fill-palette-color="accent"></polygon></g></svg></g></g></svg></g><defs></defs></svg><rect width="395.52" height="247.2" fill="none" stroke="none" visibility="hidden"></rect></g></svg></g></svg>