<svg id="e3q1fDaXtPL1" xmlns="http://www.w3.org/2000/svg" xmlns:xlink="http://www.w3.org/1999/xlink" viewBox="0 0 163 191" shape-rendering="geometricPrecision" text-rendering="geometricPrecision"><g transform="translate(-67.688004-31.963997)"><g><path d="M147.373,54.718c-13.499,0-25.053,14.384-25.539,14.996-.179.226-.141.554.085.732.096.076.21.113.323.113.154,0,.306-.068.409-.198.116-.146,11.73-14.601,24.721-14.601c12.998,0,24.06,13.082,24.171,13.215.184.22.512.252.734.066.221-.184.251-.513.067-.734-.462-.554-11.48-13.589-24.971-13.589Z" transform="translate(-.375763 8.266871)" fill="#272727"/><path d="M119.73,70.28c.007,0,.014,0,.021-.001.288-.011.512-.254.501-.541-.008-.214-.808-21.474,1.367-27.73c2.129-6.12,15.434-9.422,26.871-9.422c11.416,0,23.491,7.65,23.491,11.764c0,4.436,1.34,22.449,1.397,23.213.021.287.26.499.559.481.287-.021.503-.271.481-.559-.014-.187-1.394-18.739-1.394-23.136c0-2.413-3.018-5.583-7.877-8.274-5.201-2.881-11.272-4.533-16.657-4.533-12.093,0-25.544,3.477-27.856,10.123-2.24,6.441-1.459,27.231-1.424,28.113.01.281.242.502.52.502Z" transform="translate(.000004-.000003)" fill="#272727"/><path d="M111.912,94.851c-.823,1.545-2.485,3.982-4.188,3.982-1.216,0-2.37-.825-3.298-1.487-.831-.594-1.487-1.063-2.105-.862-.317.103-.544.355-.676.751-.416,1.248-.417,4.894,1.061,7.72.89,1.703,2.153,2.805,3.755,3.276c2.974.875,5.069,1.314,6.242,1.523-1.054,1.07-2.708,3.205-2.708,6.074c0,4.192,2.157,6.385,3.313,6.385.663,0,1.004-.69,1.476-1.646.534-1.082,1.2-2.428,2.337-2.855c2.234-.837,4.496-1.965,4.518-1.976.182-.091.294-.28.288-.483l-.279-8.935c-.009-.268-.219-.486-.487-.504-.038-.002-3.762-.331-4.542-7.355-.624-5.617,1.165-8.153,1.943-8.969l2.725,3.22c.131.156.341.22.535.167.196-.053.343-.215.377-.415l3.068-17.85l2.187.405c.147.026.297-.01.415-.102.02-.015.322-.249.833-.624l27.348-5.045c1.143.553,2.301,1.127,3.449,1.698c5.045,2.512,8.426,4.143,10.276,4.143.024,0,.04-.008.063-.008l2.988,17.382c.034.2.181.362.377.415.195.053.404-.011.535-.167l2.725-3.22c.78.819,2.566,3.355,1.943,8.968-.773,6.958-4.393,7.342-4.543,7.355-.268.018-.478.236-.487.504l-.279,8.935c-.006.203.107.392.288.483.022.011,2.284,1.139,4.518,1.976c1.138.427,1.803,1.773,2.338,2.855.472.955.813,1.645,1.475,1.645c1.156,0,3.314-2.193,3.314-6.385c0-2.869-1.654-5.004-2.708-6.074c1.173-.209,3.269-.648,6.242-1.523c1.602-.471,2.865-1.573,3.755-3.276c1.477-2.826,1.476-6.473,1.06-7.72-.132-.396-.359-.648-.676-.751-.619-.204-1.274.268-2.105.862-.928.662-2.082,1.487-3.298,1.487-1.7,0-3.362-2.438-4.187-3.982c2.15-.081,7.69-.824,10.242-6.16c3.201-6.693-.249-9.967-.398-10.103-.171-.156-.423-.181-.62-.063-.055.032-5.455,3.224-9.658,2.175-3.653-.913-8.004-5.858-9.178-7.258c1.146-.821,1.857-1.61,1.906-1.665.189-.216.168-.545-.049-.735-.216-.189-.545-.169-.736.048-.014.016-1.023,1.141-2.577,2.054l-1.944.864c-1.35.38-5.816-1.844-10.139-3.996-3.996-1.989-8.128-4.047-11.333-4.944-6.79-1.905-19.453,7.534-21.215,8.882l-4.497-.832-.463-.206c-.159-.071-.337-.054-.48.031l-1.871-.346c-.285-.058-.556.135-.608.418s.134.555.418.608l1.256.232c-1.533,1.773-5.472,6.007-8.826,6.846-4.202,1.051-9.603-2.143-9.658-2.175-.199-.119-.45-.093-.62.063-.148.136-3.598,3.41-.397,10.103c2.554,5.338,8.095,6.081,10.244,6.162Z" transform="translate(.000004-.375769)" fill="#272727"/><path d="M151.282,92.058c.004,0,.008,0,.012,0c.288-.007.516-.245.51-.533l-.28-12.564c-.007-.284-.239-.51-.521-.51-.004,0-.008,0-.012,0-.288.007-.516.245-.51.533l.28,12.564c.006.284.238.51.521.51Z" transform="translate(.000004-.000003)" fill="#272727"/><path d="M168.353,80.352c.128,0,.241-.01.343-.03.545-.109.75-.491.76-.813.042-1.317-3.223-3.493-6.591-4.391-4.387-1.172-9.725,2.988-9.951,3.166-.188.149-.251.408-.151.626s.341.34.572.295c4.928-.947,9.668.093,12.501.714c1.174.257,1.972.433,2.517.433Z" transform="translate(.000004-.000003)" fill="#272727"/><path d="M133.836,75.118c-3.368.898-6.633,3.073-6.591,4.391.01.321.215.704.76.813.102.02.215.03.343.03.545,0,1.342-.175,2.517-.433c2.833-.62,7.573-1.661,12.501-.714.233.043.473-.077.572-.295.1-.218.038-.477-.151-.626-.225-.179-5.56-4.336-9.951-3.166Z" transform="translate(.000004-.000003)" fill="#272727"/><path d="M134.845,89.024c0,1.858,1.026,3.314,2.336,3.314s2.337-1.455,2.337-3.314c0-1.858-1.026-3.314-2.337-3.314-1.31.001-2.336,1.456-2.336,3.314Z" transform="translate(.000004-.000003)" fill="#272727"/><path d="M157.461,89.024c0,1.858,1.026,3.314,2.336,3.314s2.337-1.455,2.337-3.314c0-1.858-1.026-3.314-2.337-3.314-1.31.001-2.336,1.456-2.336,3.314Z" transform="translate(.375771 0.375764)" fill="#272727"/><path d="M141.701,104.436c-.123-.259-.433-.371-.695-.246-.26.124-.37.435-.246.695.12.252,2.985,6.161,7.451,6.161c4.441,0,8.117-6.414,8.271-6.687.142-.251.053-.569-.197-.71-.251-.142-.569-.055-.71.197-.035.062-3.524,6.157-7.364,6.157-3.807-.001-6.483-5.511-6.51-5.567Z" transform="translate(.000004 0.751531)" fill="#272727"/><path d="M148.171,123.814c.546,0,1.078-.072,1.587-.227c6.516-1.983,14.188-12.588,14.512-13.039.143-.199.128-.471-.036-.653-.165-.183-.434-.225-.646-.103-13.318,7.61-30.682,2.245-30.855,2.19-.221-.07-.463.015-.592.208s-.115.448.036.626c.408.483,9.369,10.998,15.994,10.998Zm13.841-12.035c-2.52,3.159-7.961,9.411-12.557,10.81-4.83,1.468-12.437-6.048-15.322-9.155c4.508,1.089,17.073,3.374,27.879-1.655Z" transform="translate(.000004-.000003)" fill="#272727"/><path d="M231.078,222.963c-4.51-13.605-12.785-38.539-12.785-40.165c0-2.103-40.586-23.014-45.334-25.453.053-.103.079-.222.052-.344l-5.864-27.321c-.06-.281-.336-.461-.619-.4-.282.06-.461.338-.4.619l5.864,27.321c.025.117.089.215.174.286l-8.45,9.966c-8.609,10.154-24.506,9.38-32.088-1.562l-6.467-9.332c.007,0,.013.001.02.001.254,0,.476-.185.515-.443.635-4.191,1.595-9.874,2.497-15.064l10.992-4.062c1.443,1.316,2.576,2.303,3.144,2.7c1.791,1.254,5.09,1.929,8.315,1.929c2.271,0,4.506-.335,6.15-1.04c4.016-1.721,15.394-20.356,15.876-21.149.15-.246.071-.567-.175-.717s-.566-.071-.717.175c-3.238,5.319-12.315,19.413-15.396,20.733-3.941,1.689-10.921.989-13.457-.785-1.517-1.062-7.415-6.671-12.376-11.463-.052-.156-.175-.278-.339-.328-3.801-3.675-6.969-6.789-7.042-6.861-.205-.202-.536-.2-.737.006-.202.205-.199.535.006.737.293.289,3.374,3.317,7.048,6.87-.242,1.338-1.157,6.404-2.178,12.262l-.316,1.437.071-.026c-.871,5.031-1.784,10.451-2.396,14.49-.003.022.004.042.003.063-2.101,1.164-44.307,24.577-44.307,26.756c0,1.612-8.14,26.555-12.674,40.165h163.39Zm-40.459-23.511c-1.312.708-32.2,17.35-36.93,19.02-.057.02-.116.029-.174.029-.215,0-.416-.134-.492-.348-.096-.271.047-.569.318-.666c4.655-1.643,36.462-18.781,36.782-18.953.254-.137.57-.042.706.211.139.254.044.571-.21.707Zm9.28-14.358c2.415-1.695,3.85-2.719,3.851-2.72.235-.166.56-.113.728.122.167.235.113.56-.122.728c0,0-1.438,1.026-3.858,2.724-.091.064-.196.095-.299.095-.164,0-.326-.077-.427-.222-.165-.237-.108-.562.127-.727ZM149.994,216.37c9.041-3.154,35.733-21.4,46.789-29.098.235-.165.562-.106.726.13.165.236.107.561-.13.726-13.777,9.593-38.207,26.145-47.041,29.227-.057.02-.115.029-.172.029-.215,0-.417-.134-.492-.35-.096-.272.048-.569.32-.664Zm-16.423-27.147c-.099.155-.267.239-.439.239-.097,0-.194-.027-.282-.083-7.851-5.047-12.287-14.069-12.472-14.451-.126-.259-.018-.571.241-.697.26-.125.571-.017.697.241.044.091,4.499,9.144,12.098,14.029.243.157.313.48.157.722Zm-2.106-5.433c.202-.205.532-.209.737-.006c1.039,1.023,1.995,1.755,2.839,2.178.258.129.362.442.233.7-.092.183-.275.288-.467.288-.078,0-.158-.018-.233-.055-.943-.471-1.987-1.268-3.104-2.367-.204-.203-.207-.533-.005-.738Zm-13.364-20.724c.258-.129.57-.025.7.233.056.112,5.66,11.268,11.196,18.037.182.223.149.552-.074.734-.097.079-.213.118-.329.118-.151,0-.301-.065-.404-.191-5.61-6.859-11.265-18.118-11.322-18.231-.129-.258-.025-.571.233-.7Z" transform="translate(.000004-.000003)" fill="#272727"/></g></g></svg>
